<svg width="100" height="30" viewBox="0 0 100 30" fill="none" xmlns="http://www.w3.org/2000/svg">
<path d="M0 10C0 4.47715 4.47715 0 10 0H90C95.5229 0 100 4.47715 100 10C100 15.5228 95.5229 20 90 20H10C4.47715 20 0 15.5228 0 10Z" fill="#121515"/>
<path d="M17.3594 13.5391C17.3594 13.7891 17.3151 14.0573 17.2266 14.3438C17.1432 14.6302 17.0026 14.8958 16.8047 15.1406C16.612 15.3854 16.3594 15.5911 16.0469 15.7578C15.7344 15.9193 15.3516 16 14.8984 16H7.1875C7.04167 16 6.90625 15.974 6.78125 15.9219C6.65625 15.8698 6.54688 15.7995 6.45312 15.7109C6.36458 15.6172 6.29427 15.5078 6.24219 15.3828C6.1901 15.2578 6.16406 15.1224 6.16406 14.9766V5.82031C6.16406 5.67969 6.1901 5.54688 6.24219 5.42188C6.29427 5.29688 6.36458 5.1875 6.45312 5.09375C6.54688 5 6.65625 4.92708 6.78125 4.875C6.90625 4.82292 7.04167 4.79688 7.1875 4.79688H13.9844C14.2344 4.79688 14.5026 4.84115 14.7891 4.92969C15.0755 5.01823 15.3411 5.16146 15.5859 5.35938C15.8359 5.55208 16.0417 5.80469 16.2031 6.11719C16.3698 6.42969 16.4531 6.8125 16.4531 7.26562V7.64844C16.4531 8.00781 16.3932 8.39583 16.2734 8.8125C16.1536 9.22396 15.9609 9.61458 15.6953 9.98438C15.9245 10.125 16.138 10.2943 16.3359 10.4922C16.5391 10.6901 16.7161 10.9193 16.8672 11.1797C17.0182 11.4401 17.138 11.7344 17.2266 12.0625C17.3151 12.3906 17.3594 12.7526 17.3594 13.1484V13.5391ZM15.3281 13.1484C15.3281 12.8828 15.2865 12.6458 15.2031 12.4375C15.1198 12.224 15.0026 12.0417 14.8516 11.8906C14.7005 11.7396 14.5182 11.625 14.3047 11.5469C14.0911 11.4635 13.8516 11.4219 13.5859 11.4219H9.00781V9.375H12.6719C12.9375 9.375 13.1771 9.33594 13.3906 9.25781C13.6042 9.17448 13.7865 9.05729 13.9375 8.90625C14.0885 8.75521 14.2031 8.57552 14.2812 8.36719C14.3646 8.15365 14.4062 7.91406 14.4062 7.64844V7.26562C14.4062 6.97396 14.2656 6.82812 13.9844 6.82812H8.19531V13.9688H14.8984C14.9349 13.9688 14.9792 13.9661 15.0312 13.9609C15.0833 13.9557 15.1302 13.9401 15.1719 13.9141C15.2135 13.888 15.25 13.8438 15.2812 13.7812C15.3125 13.7188 15.3281 13.6328 15.3281 13.5234V13.1484Z" fill="white"/>
<path d="M30.3281 8.5625C30.3281 9.02604 30.2708 9.4401 30.1562 9.80469C30.0417 10.1693 29.8854 10.4922 29.6875 10.7734C29.4948 11.0495 29.2708 11.2865 29.0156 11.4844C28.7604 11.6823 28.4922 11.8464 28.2109 11.9766C27.9349 12.1016 27.6536 12.1927 27.3672 12.25C27.0859 12.3073 26.8203 12.3359 26.5703 12.3359L30.8125 16H27.6719L23.4375 12.3359H21.9766V10.3047H26.5703C26.8255 10.2839 27.0573 10.2318 27.2656 10.1484C27.4792 10.0599 27.6615 9.94271 27.8125 9.79688C27.9688 9.65104 28.0885 9.47656 28.1719 9.27344C28.2552 9.0651 28.2969 8.82812 28.2969 8.5625V7.28125C28.2969 7.16667 28.2812 7.08073 28.25 7.02344C28.224 6.96094 28.1875 6.91667 28.1406 6.89062C28.099 6.85938 28.0521 6.84115 28 6.83594C27.9531 6.83073 27.9089 6.82812 27.8672 6.82812H21.1641V16H19.1328V5.82031C19.1328 5.67969 19.1589 5.54688 19.2109 5.42188C19.263 5.29688 19.3333 5.1875 19.4219 5.09375C19.5156 5 19.625 4.92708 19.75 4.875C19.875 4.82292 20.0104 4.79688 20.1562 4.79688H27.8672C28.3203 4.79688 28.7031 4.88021 29.0156 5.04688C29.3281 5.20833 29.5807 5.41406 29.7734 5.66406C29.9714 5.90885 30.112 6.17448 30.1953 6.46094C30.2839 6.7474 30.3281 7.01562 30.3281 7.26562V8.5625Z" fill="white"/>
<path d="M43.3594 16H41.3281V13.25H34.1875V16H32.1562V10.3984C32.1562 9.58073 32.2969 8.82812 32.5781 8.14062C32.8594 7.45312 33.25 6.86198 33.75 6.36719C34.25 5.8724 34.8411 5.48698 35.5234 5.21094C36.2057 4.9349 36.9505 4.79688 37.7578 4.79688H42.3359C42.4766 4.79688 42.6094 4.82292 42.7344 4.875C42.8594 4.92708 42.9688 5 43.0625 5.09375C43.1562 5.1875 43.2292 5.29688 43.2812 5.42188C43.3333 5.54688 43.3594 5.67969 43.3594 5.82031V16ZM34.1875 11.2188H41.3281V6.82812H37.7578C37.6953 6.82812 37.5625 6.83854 37.3594 6.85938C37.1615 6.875 36.9297 6.91927 36.6641 6.99219C36.4036 7.0651 36.1276 7.17708 35.8359 7.32812C35.5443 7.47917 35.276 7.6875 35.0312 7.95312C34.7865 8.21875 34.5833 8.55208 34.4219 8.95312C34.2656 9.34896 34.1875 9.83073 34.1875 10.3984V11.2188Z" fill="white"/>
<path d="M50.8438 8.79688L54.2656 4.79688H57.0391L52.2188 10.4141L57.0078 16H54.25L50.8438 12.0312L47.4531 16H44.6875L49.4688 10.4141L44.6719 4.79688H47.4219L50.8438 8.79688Z" fill="white"/>
<path d="M68.4453 6.82812H63.9688V16H61.9375V6.82812H57.4531V4.79688H68.4453V6.82812Z" fill="white"/>
<path d="M81.5469 11.4688C81.5469 12.151 81.4297 12.7786 81.1953 13.3516C80.9609 13.9245 80.6354 14.4193 80.2188 14.8359C79.8021 15.2526 79.3073 15.5781 78.7344 15.8125C78.1667 16.0417 77.5469 16.1562 76.875 16.1562H74.125C73.4531 16.1562 72.8307 16.0417 72.2578 15.8125C71.6849 15.5781 71.1901 15.2526 70.7734 14.8359C70.3568 14.4193 70.0286 13.9245 69.7891 13.3516C69.5547 12.7786 69.4375 12.151 69.4375 11.4688V9.32812C69.4375 8.65104 69.5547 8.02604 69.7891 7.45312C70.0286 6.875 70.3568 6.38021 70.7734 5.96875C71.1901 5.55208 71.6849 5.22656 72.2578 4.99219C72.8307 4.75781 73.4531 4.64062 74.125 4.64062H76.875C77.5469 4.64062 78.1667 4.75781 78.7344 4.99219C79.3073 5.22656 79.8021 5.55208 80.2188 5.96875C80.6354 6.38021 80.9609 6.875 81.1953 7.45312C81.4297 8.02604 81.5469 8.65104 81.5469 9.32812V11.4688ZM79.5156 9.32812C79.5156 8.92708 79.4505 8.5651 79.3203 8.24219C79.1953 7.91406 79.0156 7.63542 78.7812 7.40625C78.5521 7.17188 78.2734 6.99219 77.9453 6.86719C77.6224 6.73698 77.2656 6.67188 76.875 6.67188H74.125C73.7292 6.67188 73.3672 6.73698 73.0391 6.86719C72.7161 6.99219 72.4375 7.17188 72.2031 7.40625C71.9688 7.63542 71.7865 7.91406 71.6562 8.24219C71.5312 8.5651 71.4688 8.92708 71.4688 9.32812V11.4688C71.4688 11.8698 71.5312 12.2344 71.6562 12.5625C71.7865 12.8854 71.9688 13.1641 72.2031 13.3984C72.4375 13.6276 72.7161 13.8073 73.0391 13.9375C73.3672 14.0625 73.7292 14.125 74.125 14.125H76.8594C77.2552 14.125 77.6146 14.0625 77.9375 13.9375C78.2656 13.8073 78.5469 13.6276 78.7812 13.3984C79.0156 13.1641 79.1953 12.8854 79.3203 12.5625C79.4505 12.2344 79.5156 11.8698 79.5156 11.4688V9.32812Z" fill="white"/>
<path d="M94.75 15.1328C94.75 15.2786 94.7214 15.4141 94.6641 15.5391C94.612 15.6641 94.5391 15.7734 94.4453 15.8672C94.3568 15.9557 94.25 16.026 94.125 16.0781C94 16.1302 93.8672 16.1562 93.7266 16.1562C93.6016 16.1562 93.474 16.1328 93.3438 16.0859C93.2188 16.0391 93.1068 15.9635 93.0078 15.8594L85.5859 8.10938V16H83.5547V5.66406C83.5547 5.45573 83.612 5.26823 83.7266 5.10156C83.8464 4.92969 83.9974 4.80208 84.1797 4.71875C84.3724 4.64062 84.5703 4.6224 84.7734 4.66406C84.9766 4.70052 85.151 4.79427 85.2969 4.94531L92.7188 12.6875V4.79688H94.75V15.1328Z" fill="white"/>
<path d="M7.18953 26.9999V23.8449H6.14453V23.4999H8.65453V23.8449H7.60953V26.9999H7.18953Z" fill="#121515"/>
<path d="M9.39238 26.9999V23.3999H9.81238V24.9449C9.89572 24.7916 10.014 24.6732 10.1674 24.5899C10.3207 24.5032 10.4874 24.4599 10.6674 24.4599C10.954 24.4599 11.184 24.5499 11.3574 24.7299C11.5307 24.9066 11.6174 25.1799 11.6174 25.5499V26.9999H11.2024V25.5949C11.2024 25.0782 10.994 24.8199 10.5774 24.8199C10.3607 24.8199 10.179 24.8982 10.0324 25.0549C9.88572 25.2082 9.81238 25.4282 9.81238 25.7149V26.9999H9.39238Z" fill="#121515"/>
<path d="M13.6187 27.0599C13.382 27.0599 13.172 27.0066 12.9887 26.8999C12.8054 26.7899 12.6604 26.6382 12.5537 26.4449C12.4504 26.2516 12.3987 26.0232 12.3987 25.7599C12.3987 25.4999 12.4504 25.2732 12.5537 25.0799C12.657 24.8832 12.8004 24.7316 12.9837 24.6249C13.1704 24.5149 13.3854 24.4599 13.6287 24.4599C13.8687 24.4599 14.0754 24.5149 14.2487 24.6249C14.4254 24.7316 14.5604 24.8732 14.6537 25.0499C14.747 25.2266 14.7937 25.4166 14.7937 25.6199C14.7937 25.6566 14.792 25.6932 14.7887 25.7299C14.7887 25.7666 14.7887 25.8082 14.7887 25.8549H12.8137C12.8237 26.0449 12.867 26.2032 12.9437 26.3299C13.0237 26.4532 13.122 26.5466 13.2387 26.6099C13.3587 26.6732 13.4854 26.7049 13.6187 26.7049C13.792 26.7049 13.937 26.6649 14.0537 26.5849C14.1704 26.5049 14.2554 26.3966 14.3087 26.2599H14.7237C14.657 26.4899 14.5287 26.6816 14.3387 26.8349C14.152 26.9849 13.912 27.0599 13.6187 27.0599ZM13.6187 24.8149C13.4187 24.8149 13.2404 24.8766 13.0837 24.9999C12.9304 25.1199 12.842 25.2966 12.8187 25.5299H14.3787C14.3687 25.3066 14.292 25.1316 14.1487 25.0049C14.0054 24.8782 13.8287 24.8149 13.6187 24.8149Z" fill="#121515"/>
<path d="M17.1736 26.9999V24.5199H17.5536L17.5836 24.8799C17.6636 24.7466 17.7703 24.6432 17.9036 24.5699C18.037 24.4966 18.187 24.4599 18.3536 24.4599C18.5503 24.4599 18.7186 24.4999 18.8586 24.5799C19.002 24.6599 19.112 24.7816 19.1886 24.9449C19.2753 24.7949 19.3936 24.6766 19.5436 24.5899C19.697 24.5032 19.862 24.4599 20.0386 24.4599C20.3353 24.4599 20.572 24.5499 20.7486 24.7299C20.9253 24.9066 21.0136 25.1799 21.0136 25.5499V26.9999H20.5986V25.5949C20.5986 25.3382 20.547 25.1449 20.4436 25.0149C20.3403 24.8849 20.192 24.8199 19.9986 24.8199C19.7986 24.8199 19.632 24.8982 19.4986 25.0549C19.3686 25.2082 19.3036 25.4282 19.3036 25.7149V26.9999H18.8836V25.5949C18.8836 25.3382 18.832 25.1449 18.7286 25.0149C18.6253 24.8849 18.477 24.8199 18.2836 24.8199C18.087 24.8199 17.922 24.8982 17.7886 25.0549C17.6586 25.2082 17.5936 25.4282 17.5936 25.7149V26.9999H17.1736Z" fill="#121515"/>
<path d="M22.7213 27.0599C22.5146 27.0599 22.343 27.0249 22.2063 26.9549C22.0696 26.8849 21.968 26.7916 21.9013 26.6749C21.8346 26.5582 21.8013 26.4316 21.8013 26.2949C21.8013 26.0416 21.898 25.8466 22.0913 25.7099C22.2846 25.5732 22.548 25.5049 22.8813 25.5049H23.5513V25.4749C23.5513 25.2582 23.4946 25.0949 23.3813 24.9849C23.268 24.8716 23.1163 24.8149 22.9263 24.8149C22.763 24.8149 22.6213 24.8566 22.5013 24.9399C22.3846 25.0199 22.3113 25.1382 22.2813 25.2949H21.8513C21.868 25.1149 21.928 24.9632 22.0313 24.8399C22.138 24.7166 22.2696 24.6232 22.4263 24.5599C22.583 24.4932 22.7496 24.4599 22.9263 24.4599C23.273 24.4599 23.533 24.5532 23.7063 24.7399C23.883 24.9232 23.9713 25.1682 23.9713 25.4749V26.9999H23.5963L23.5713 26.5549C23.5013 26.6949 23.398 26.8149 23.2613 26.9149C23.128 27.0116 22.948 27.0599 22.7213 27.0599ZM22.7863 26.7049C22.9463 26.7049 23.083 26.6632 23.1963 26.5799C23.313 26.4966 23.4013 26.3882 23.4613 26.2549C23.5213 26.1216 23.5513 25.9816 23.5513 25.8349V25.8299H22.9163C22.6696 25.8299 22.4946 25.8732 22.3913 25.9599C22.2913 26.0432 22.2413 26.1482 22.2413 26.2749C22.2413 26.4049 22.288 26.5099 22.3813 26.5899C22.478 26.6666 22.613 26.7049 22.7863 26.7049Z" fill="#121515"/>
<path d="M24.8514 26.9999V24.5199H25.2314L25.2564 24.9649C25.3364 24.8082 25.4514 24.6849 25.6014 24.5949C25.7514 24.5049 25.9214 24.4599 26.1114 24.4599C26.4047 24.4599 26.638 24.5499 26.8114 24.7299C26.988 24.9066 27.0764 25.1799 27.0764 25.5499V26.9999H26.6564V25.5949C26.6564 25.0782 26.443 24.8199 26.0164 24.8199C25.803 24.8199 25.6247 24.8982 25.4814 25.0549C25.3414 25.2082 25.2714 25.4282 25.2714 25.7149V26.9999H24.8514Z" fill="#121515"/>
<path d="M28.8677 27.0599C28.5744 27.0599 28.341 26.9716 28.1677 26.7949C27.9944 26.6149 27.9077 26.3399 27.9077 25.9699V24.5199H28.3277V25.9249C28.3277 26.4416 28.5394 26.6999 28.9627 26.6999C29.1794 26.6999 29.3577 26.6232 29.4977 26.4699C29.641 26.3132 29.7127 26.0916 29.7127 25.8049V24.5199H30.1327V26.9999H29.7527L29.7227 26.5549C29.646 26.7116 29.531 26.8349 29.3777 26.9249C29.2277 27.0149 29.0577 27.0599 28.8677 27.0599Z" fill="#121515"/>
<path d="M31.209 26.9999V24.8749H30.834V24.5199H31.209V24.0899C31.209 23.8499 31.269 23.6749 31.389 23.5649C31.509 23.4549 31.684 23.3999 31.914 23.3999H32.164V23.7599H31.979C31.8524 23.7599 31.7624 23.7866 31.709 23.8399C31.6557 23.8899 31.629 23.9766 31.629 24.0999V24.5199H32.239V24.8749H31.629V26.9999H31.209Z" fill="#121515"/>
<path d="M33.7164 27.0599C33.5097 27.0599 33.3381 27.0249 33.2014 26.9549C33.0647 26.8849 32.9631 26.7916 32.8964 26.6749C32.8297 26.5582 32.7964 26.4316 32.7964 26.2949C32.7964 26.0416 32.8931 25.8466 33.0864 25.7099C33.2797 25.5732 33.5431 25.5049 33.8764 25.5049H34.5464V25.4749C34.5464 25.2582 34.4897 25.0949 34.3764 24.9849C34.2631 24.8716 34.1114 24.8149 33.9214 24.8149C33.7581 24.8149 33.6164 24.8566 33.4964 24.9399C33.3797 25.0199 33.3064 25.1382 33.2764 25.2949H32.8464C32.8631 25.1149 32.9231 24.9632 33.0264 24.8399C33.1331 24.7166 33.2647 24.6232 33.4214 24.5599C33.5781 24.4932 33.7447 24.4599 33.9214 24.4599C34.2681 24.4599 34.5281 24.5532 34.7014 24.7399C34.8781 24.9232 34.9664 25.1682 34.9664 25.4749V26.9999H34.5914L34.5664 26.5549C34.4964 26.6949 34.3931 26.8149 34.2564 26.9149C34.1231 27.0116 33.9431 27.0599 33.7164 27.0599ZM33.7814 26.7049C33.9414 26.7049 34.0781 26.6632 34.1914 26.5799C34.3081 26.4966 34.3964 26.3882 34.4564 26.2549C34.5164 26.1216 34.5464 25.9816 34.5464 25.8349V25.8299H33.9114C33.6647 25.8299 33.4897 25.8732 33.3864 25.9599C33.2864 26.0432 33.2364 26.1482 33.2364 26.2749C33.2364 26.4049 33.2831 26.5099 33.3764 26.5899C33.4731 26.6666 33.6081 26.7049 33.7814 26.7049Z" fill="#121515"/>
<path d="M36.9865 27.0599C36.7498 27.0599 36.5365 27.0066 36.3465 26.8999C36.1598 26.7899 36.0115 26.6382 35.9015 26.4449C35.7948 26.2482 35.7415 26.0199 35.7415 25.7599C35.7415 25.4999 35.7948 25.2732 35.9015 25.0799C36.0115 24.8832 36.1598 24.7316 36.3465 24.6249C36.5365 24.5149 36.7498 24.4599 36.9865 24.4599C37.2798 24.4599 37.5265 24.5366 37.7265 24.6899C37.9298 24.8432 38.0582 25.0482 38.1115 25.3049H37.6815C37.6482 25.1516 37.5665 25.0332 37.4365 24.9499C37.3065 24.8632 37.1548 24.8199 36.9815 24.8199C36.8415 24.8199 36.7098 24.8549 36.5865 24.9249C36.4632 24.9949 36.3631 25.0999 36.2865 25.2399C36.2098 25.3799 36.1715 25.5532 36.1715 25.7599C36.1715 25.9666 36.2098 26.1399 36.2865 26.2799C36.3631 26.4199 36.4632 26.5266 36.5865 26.5999C36.7098 26.6699 36.8415 26.7049 36.9815 26.7049C37.1548 26.7049 37.3065 26.6632 37.4365 26.5799C37.5665 26.4932 37.6482 26.3716 37.6815 26.2149H38.1115C38.0615 26.4649 37.9348 26.6682 37.7315 26.8249C37.5282 26.9816 37.2798 27.0599 36.9865 27.0599Z" fill="#121515"/>
<path d="M39.8597 26.9999C39.633 26.9999 39.4547 26.9449 39.3247 26.8349C39.1947 26.7249 39.1297 26.5266 39.1297 26.2399V24.8749H38.6997V24.5199H39.1297L39.1847 23.9249H39.5497V24.5199H40.2797V24.8749H39.5497V26.2399C39.5497 26.3966 39.5814 26.5032 39.6447 26.5599C39.708 26.6132 39.8197 26.6399 39.9797 26.6399H40.2397V26.9999H39.8597Z" fill="#121515"/>
<path d="M41.9683 27.0599C41.6749 27.0599 41.4416 26.9716 41.2683 26.7949C41.0949 26.6149 41.0083 26.3399 41.0083 25.9699V24.5199H41.4283V25.9249C41.4283 26.4416 41.6399 26.6999 42.0633 26.6999C42.2799 26.6999 42.4583 26.6232 42.5983 26.4699C42.7416 26.3132 42.8133 26.0916 42.8133 25.8049V24.5199H43.2333V26.9999H42.8533L42.8233 26.5549C42.7466 26.7116 42.6316 26.8349 42.4783 26.9249C42.3283 27.0149 42.1583 27.0599 41.9683 27.0599Z" fill="#121515"/>
<path d="M44.1746 26.9999V24.5199H44.5546L44.5896 24.9949C44.6663 24.8316 44.7829 24.7016 44.9396 24.6049C45.0963 24.5082 45.2896 24.4599 45.5196 24.4599V24.8999H45.4046C45.2579 24.8999 45.1229 24.9266 44.9996 24.9799C44.8763 25.0299 44.7779 25.1166 44.7046 25.2399C44.6313 25.3632 44.5946 25.5332 44.5946 25.7499V26.9999H44.1746Z" fill="#121515"/>
<path d="M46.496 23.9699C46.4127 23.9699 46.3427 23.9432 46.286 23.8899C46.2327 23.8332 46.206 23.7632 46.206 23.6799C46.206 23.5999 46.2327 23.5332 46.286 23.4799C46.3427 23.4266 46.4127 23.3999 46.496 23.3999C46.576 23.3999 46.6443 23.4266 46.701 23.4799C46.7577 23.5332 46.786 23.5999 46.786 23.6799C46.786 23.7632 46.7577 23.8332 46.701 23.8899C46.6443 23.9432 46.576 23.9699 46.496 23.9699ZM46.286 26.9999V24.5199H46.706V26.9999H46.286Z" fill="#121515"/>
<path d="M47.6873 26.9999V24.5199H48.0673L48.0923 24.9649C48.1723 24.8082 48.2873 24.6849 48.4373 24.5949C48.5873 24.5049 48.7573 24.4599 48.9473 24.4599C49.2406 24.4599 49.474 24.5499 49.6473 24.7299C49.824 24.9066 49.9123 25.1799 49.9123 25.5499V26.9999H49.4923V25.5949C49.4923 25.0782 49.279 24.8199 48.8523 24.8199C48.639 24.8199 48.4606 24.8982 48.3173 25.0549C48.1773 25.2082 48.1073 25.4282 48.1073 25.7149V26.9999H47.6873Z" fill="#121515"/>
<path d="M51.7786 26.2199C51.6386 26.2199 51.5103 26.2016 51.3936 26.1649L51.1436 26.3999C51.1803 26.4266 51.2253 26.4499 51.2786 26.4699C51.3353 26.4866 51.4153 26.5032 51.5186 26.5199C51.622 26.5332 51.767 26.5482 51.9536 26.5649C52.287 26.5882 52.5253 26.6649 52.6686 26.7949C52.812 26.9249 52.8836 27.0949 52.8836 27.3049C52.8836 27.4482 52.8436 27.5849 52.7636 27.7149C52.687 27.8449 52.567 27.9516 52.4036 28.0349C52.2436 28.1182 52.037 28.1599 51.7836 28.1599C51.5603 28.1599 51.362 28.1299 51.1886 28.0699C51.0153 28.0132 50.8803 27.9249 50.7836 27.8049C50.687 27.6882 50.6386 27.5399 50.6386 27.3599C50.6386 27.2666 50.6636 27.1649 50.7136 27.0549C50.7636 26.9482 50.857 26.8466 50.9936 26.7499C50.9203 26.7199 50.857 26.6882 50.8036 26.6549C50.7536 26.6182 50.707 26.5782 50.6636 26.5349V26.4199L51.0886 25.9999C50.892 25.8332 50.7936 25.6132 50.7936 25.3399C50.7936 25.1766 50.832 25.0282 50.9086 24.8949C50.9853 24.7616 51.097 24.6566 51.2436 24.5799C51.3903 24.4999 51.5686 24.4599 51.7786 24.4599C51.922 24.4599 52.052 24.4799 52.1686 24.5199H53.0836V24.8349L52.6186 24.8549C52.7153 24.9949 52.7636 25.1566 52.7636 25.3399C52.7636 25.5032 52.7236 25.6516 52.6436 25.7849C52.567 25.9182 52.4553 26.0249 52.3086 26.1049C52.1653 26.1816 51.9886 26.2199 51.7786 26.2199ZM51.7786 25.8749C51.9553 25.8749 52.0953 25.8299 52.1986 25.7399C52.3053 25.6466 52.3586 25.5132 52.3586 25.3399C52.3586 25.1699 52.3053 25.0399 52.1986 24.9499C52.0953 24.8566 51.9553 24.8099 51.7786 24.8099C51.5986 24.8099 51.4553 24.8566 51.3486 24.9499C51.2453 25.0399 51.1936 25.1699 51.1936 25.3399C51.1936 25.5132 51.2453 25.6466 51.3486 25.7399C51.4553 25.8299 51.5986 25.8749 51.7786 25.8749ZM51.0486 27.3199C51.0486 27.4866 51.1186 27.6099 51.2586 27.6899C51.3986 27.7732 51.5736 27.8149 51.7836 27.8149C51.9903 27.8149 52.1553 27.7699 52.2786 27.6799C52.4053 27.5899 52.4686 27.4699 52.4686 27.3199C52.4686 27.2132 52.4253 27.1199 52.3386 27.0399C52.252 26.9632 52.092 26.9182 51.8586 26.9049C51.6753 26.8916 51.517 26.8749 51.3836 26.8549C51.247 26.9282 51.157 27.0066 51.1136 27.0899C51.0703 27.1766 51.0486 27.2532 51.0486 27.3199Z" fill="#121515"/>
<path d="M56.3307 27.0599C56.034 27.0599 55.7873 26.9849 55.5907 26.8349C55.394 26.6849 55.279 26.4816 55.2457 26.2249H55.6757C55.7023 26.3549 55.7707 26.4682 55.8807 26.5649C55.994 26.6582 56.1457 26.7049 56.3357 26.7049C56.5123 26.7049 56.6423 26.6682 56.7257 26.5949C56.809 26.5182 56.8507 26.4282 56.8507 26.3249C56.8507 26.1749 56.7957 26.0749 56.6857 26.0249C56.579 25.9749 56.4273 25.9299 56.2307 25.8899C56.0973 25.8632 55.964 25.8249 55.8307 25.7749C55.6973 25.7249 55.5857 25.6549 55.4957 25.5649C55.4057 25.4716 55.3607 25.3499 55.3607 25.1999C55.3607 24.9832 55.4407 24.8066 55.6007 24.6699C55.764 24.5299 55.984 24.4599 56.2607 24.4599C56.524 24.4599 56.739 24.5266 56.9057 24.6599C57.0757 24.7899 57.174 24.9766 57.2007 25.2199H56.7857C56.769 25.0932 56.714 24.9949 56.6207 24.9249C56.5307 24.8516 56.409 24.8149 56.2557 24.8149C56.1057 24.8149 55.989 24.8466 55.9057 24.9099C55.8257 24.9732 55.7857 25.0566 55.7857 25.1599C55.7857 25.2599 55.8373 25.3382 55.9407 25.3949C56.0473 25.4516 56.1907 25.4999 56.3707 25.5399C56.524 25.5732 56.669 25.6149 56.8057 25.6649C56.9457 25.7116 57.059 25.7832 57.1457 25.8799C57.2357 25.9732 57.2807 26.1099 57.2807 26.2899C57.284 26.5132 57.199 26.6982 57.0257 26.8449C56.8557 26.9882 56.624 27.0599 56.3307 27.0599Z" fill="#121515"/>
<path d="M58.1307 26.9999V23.3999H58.5507V24.9449C58.634 24.7916 58.7523 24.6732 58.9057 24.5899C59.059 24.5032 59.2257 24.4599 59.4057 24.4599C59.6923 24.4599 59.9223 24.5499 60.0957 24.7299C60.269 24.9066 60.3557 25.1799 60.3557 25.5499V26.9999H59.9407V25.5949C59.9407 25.0782 59.7323 24.8199 59.3157 24.8199C59.099 24.8199 58.9173 24.8982 58.7707 25.0549C58.624 25.2082 58.5507 25.4282 58.5507 25.7149V26.9999H58.1307Z" fill="#121515"/>
<path d="M62.372 27.0599C62.1387 27.0599 61.9287 27.0066 61.742 26.8999C61.5553 26.7932 61.407 26.6432 61.297 26.4499C61.1903 26.2532 61.137 26.0232 61.137 25.7599C61.137 25.4966 61.192 25.2682 61.302 25.0749C61.412 24.8782 61.5603 24.7266 61.747 24.6199C61.937 24.5132 62.1487 24.4599 62.382 24.4599C62.6153 24.4599 62.8253 24.5132 63.012 24.6199C63.1987 24.7266 63.3453 24.8782 63.452 25.0749C63.562 25.2682 63.617 25.4966 63.617 25.7599C63.617 26.0232 63.562 26.2532 63.452 26.4499C63.342 26.6432 63.192 26.7932 63.002 26.8999C62.8153 27.0066 62.6053 27.0599 62.372 27.0599ZM62.372 26.6999C62.5153 26.6999 62.6487 26.6649 62.772 26.5949C62.8953 26.5249 62.9953 26.4199 63.072 26.2799C63.1487 26.1399 63.187 25.9666 63.187 25.7599C63.187 25.5532 63.1487 25.3799 63.072 25.2399C62.9987 25.0999 62.9003 24.9949 62.777 24.9249C62.6537 24.8549 62.522 24.8199 62.382 24.8199C62.2387 24.8199 62.1053 24.8549 61.982 24.9249C61.8587 24.9949 61.7587 25.0999 61.682 25.2399C61.6053 25.3799 61.567 25.5532 61.567 25.7599C61.567 25.9666 61.6053 26.1399 61.682 26.2799C61.7587 26.4199 61.857 26.5249 61.977 26.5949C62.1003 26.6649 62.232 26.6999 62.372 26.6999Z" fill="#121515"/>
<path d="M65.566 27.0599C65.3293 27.0599 65.1193 27.0066 64.936 26.8999C64.7526 26.7899 64.6076 26.6382 64.501 26.4449C64.3976 26.2516 64.346 26.0232 64.346 25.7599C64.346 25.4999 64.3976 25.2732 64.501 25.0799C64.6043 24.8832 64.7476 24.7316 64.931 24.6249C65.1176 24.5149 65.3326 24.4599 65.576 24.4599C65.816 24.4599 66.0226 24.5149 66.196 24.6249C66.3726 24.7316 66.5076 24.8732 66.601 25.0499C66.6943 25.2266 66.741 25.4166 66.741 25.6199C66.741 25.6566 66.7393 25.6932 66.736 25.7299C66.736 25.7666 66.736 25.8082 66.736 25.8549H64.761C64.771 26.0449 64.8143 26.2032 64.891 26.3299C64.971 26.4532 65.0693 26.5466 65.186 26.6099C65.306 26.6732 65.4326 26.7049 65.566 26.7049C65.7393 26.7049 65.8843 26.6649 66.001 26.5849C66.1176 26.5049 66.2026 26.3966 66.256 26.2599H66.671C66.6043 26.4899 66.476 26.6816 66.286 26.8349C66.0993 26.9849 65.8593 27.0599 65.566 27.0599ZM65.566 24.8149C65.366 24.8149 65.1876 24.8766 65.031 24.9999C64.8776 25.1199 64.7893 25.2966 64.766 25.5299H66.326C66.316 25.3066 66.2393 25.1316 66.096 25.0049C65.9526 24.8782 65.776 24.8149 65.566 24.8149Z" fill="#121515"/>
<path d="M68.4977 27.0599C68.201 27.0599 67.9543 26.9849 67.7577 26.8349C67.561 26.6849 67.446 26.4816 67.4127 26.2249H67.8427C67.8693 26.3549 67.9377 26.4682 68.0477 26.5649C68.161 26.6582 68.3127 26.7049 68.5027 26.7049C68.6793 26.7049 68.8093 26.6682 68.8927 26.5949C68.976 26.5182 69.0177 26.4282 69.0177 26.3249C69.0177 26.1749 68.9627 26.0749 68.8527 26.0249C68.746 25.9749 68.5943 25.9299 68.3977 25.8899C68.2643 25.8632 68.131 25.8249 67.9977 25.7749C67.8643 25.7249 67.7527 25.6549 67.6627 25.5649C67.5727 25.4716 67.5277 25.3499 67.5277 25.1999C67.5277 24.9832 67.6077 24.8066 67.7677 24.6699C67.931 24.5299 68.151 24.4599 68.4277 24.4599C68.691 24.4599 68.906 24.5266 69.0727 24.6599C69.2427 24.7899 69.341 24.9766 69.3677 25.2199H68.9527C68.936 25.0932 68.881 24.9949 68.7877 24.9249C68.6977 24.8516 68.576 24.8149 68.4227 24.8149C68.2727 24.8149 68.156 24.8466 68.0727 24.9099C67.9927 24.9732 67.9527 25.0566 67.9527 25.1599C67.9527 25.2599 68.0043 25.3382 68.1077 25.3949C68.2143 25.4516 68.3577 25.4999 68.5377 25.5399C68.691 25.5732 68.836 25.6149 68.9727 25.6649C69.1127 25.7116 69.226 25.7832 69.3127 25.8799C69.4027 25.9732 69.4477 26.1099 69.4477 26.2899C69.451 26.5132 69.366 26.6982 69.1927 26.8449C69.0227 26.9882 68.791 27.0599 68.4977 27.0599Z" fill="#121515"/>
<path d="M73.0109 27.0599C72.7742 27.0599 72.5609 27.0066 72.3709 26.8999C72.1842 26.7899 72.0359 26.6382 71.9259 26.4449C71.8192 26.2482 71.7659 26.0199 71.7659 25.7599C71.7659 25.4999 71.8192 25.2732 71.9259 25.0799C72.0359 24.8832 72.1842 24.7316 72.3709 24.6249C72.5609 24.5149 72.7742 24.4599 73.0109 24.4599C73.3042 24.4599 73.5509 24.5366 73.7509 24.6899C73.9542 24.8432 74.0826 25.0482 74.1359 25.3049H73.7059C73.6726 25.1516 73.5909 25.0332 73.4609 24.9499C73.3309 24.8632 73.1792 24.8199 73.0059 24.8199C72.8659 24.8199 72.7342 24.8549 72.6109 24.9249C72.4876 24.9949 72.3876 25.0999 72.3109 25.2399C72.2342 25.3799 72.1959 25.5532 72.1959 25.7599C72.1959 25.9666 72.2342 26.1399 72.3109 26.2799C72.3876 26.4199 72.4876 26.5266 72.6109 26.5999C72.7342 26.6699 72.8659 26.7049 73.0059 26.7049C73.1792 26.7049 73.3309 26.6632 73.4609 26.5799C73.5909 26.4932 73.6726 26.3716 73.7059 26.2149H74.1359C74.0859 26.4649 73.9592 26.6682 73.7559 26.8249C73.5526 26.9816 73.3042 27.0599 73.0109 27.0599Z" fill="#121515"/>
<path d="M76.1025 27.0599C75.8691 27.0599 75.6591 27.0066 75.4725 26.8999C75.2858 26.7932 75.1375 26.6432 75.0275 26.4499C74.9208 26.2532 74.8675 26.0232 74.8675 25.7599C74.8675 25.4966 74.9225 25.2682 75.0325 25.0749C75.1425 24.8782 75.2908 24.7266 75.4775 24.6199C75.6675 24.5132 75.8791 24.4599 76.1125 24.4599C76.3458 24.4599 76.5558 24.5132 76.7425 24.6199C76.9291 24.7266 77.0758 24.8782 77.1825 25.0749C77.2925 25.2682 77.3475 25.4966 77.3475 25.7599C77.3475 26.0232 77.2925 26.2532 77.1825 26.4499C77.0725 26.6432 76.9225 26.7932 76.7325 26.8999C76.5458 27.0066 76.3358 27.0599 76.1025 27.0599ZM76.1025 26.6999C76.2458 26.6999 76.3791 26.6649 76.5025 26.5949C76.6258 26.5249 76.7258 26.4199 76.8025 26.2799C76.8791 26.1399 76.9175 25.9666 76.9175 25.7599C76.9175 25.5532 76.8791 25.3799 76.8025 25.2399C76.7291 25.0999 76.6308 24.9949 76.5075 24.9249C76.3841 24.8549 76.2525 24.8199 76.1125 24.8199C75.9691 24.8199 75.8358 24.8549 75.7125 24.9249C75.5891 24.9949 75.4891 25.0999 75.4125 25.2399C75.3358 25.3799 75.2975 25.5532 75.2975 25.7599C75.2975 25.9666 75.3358 26.1399 75.4125 26.2799C75.4891 26.4199 75.5875 26.5249 75.7075 26.5949C75.8308 26.6649 75.9625 26.6999 76.1025 26.6999Z" fill="#121515"/>
<path d="M78.1814 26.9999V24.5199H78.5614L78.5914 24.8799C78.6714 24.7466 78.7781 24.6432 78.9114 24.5699C79.0448 24.4966 79.1948 24.4599 79.3615 24.4599C79.5581 24.4599 79.7264 24.4999 79.8664 24.5799C80.0098 24.6599 80.1198 24.7816 80.1964 24.9449C80.2831 24.7949 80.4015 24.6766 80.5515 24.5899C80.7048 24.5032 80.8698 24.4599 81.0464 24.4599C81.3431 24.4599 81.5798 24.5499 81.7564 24.7299C81.9331 24.9066 82.0214 25.1799 82.0214 25.5499V26.9999H81.6064V25.5949C81.6064 25.3382 81.5548 25.1449 81.4514 25.0149C81.3481 24.8849 81.1998 24.8199 81.0064 24.8199C80.8064 24.8199 80.6398 24.8982 80.5064 25.0549C80.3764 25.2082 80.3114 25.4282 80.3114 25.7149V26.9999H79.8914V25.5949C79.8914 25.3382 79.8398 25.1449 79.7365 25.0149C79.6331 24.8849 79.4848 24.8199 79.2915 24.8199C79.0948 24.8199 78.9298 24.8982 78.7964 25.0549C78.6665 25.2082 78.6014 25.4282 78.6014 25.7149V26.9999H78.1814Z" fill="#121515"/>
<path d="M82.9041 28.0999V24.5199H83.2841L83.3241 24.9299C83.4041 24.8099 83.5174 24.7016 83.6641 24.6049C83.8141 24.5082 84.0041 24.4599 84.2341 24.4599C84.4808 24.4599 84.6958 24.5166 84.8791 24.6299C85.0624 24.7432 85.2041 24.8982 85.3041 25.0949C85.4074 25.2916 85.4591 25.5149 85.4591 25.7649C85.4591 26.0149 85.4074 26.2382 85.3041 26.4349C85.2041 26.6282 85.0608 26.7816 84.8741 26.8949C84.6908 27.0049 84.4758 27.0599 84.2291 27.0599C84.0258 27.0599 83.8441 27.0182 83.6841 26.9349C83.5274 26.8516 83.4074 26.7349 83.3241 26.5849V28.0999H82.9041ZM84.1841 26.6949C84.3508 26.6949 84.4974 26.6566 84.6241 26.5799C84.7508 26.4999 84.8508 26.3899 84.9241 26.2499C84.9974 26.1099 85.0341 25.9466 85.0341 25.7599C85.0341 25.5732 84.9974 25.4099 84.9241 25.2699C84.8508 25.1299 84.7508 25.0216 84.6241 24.9449C84.4974 24.8649 84.3508 24.8249 84.1841 24.8249C84.0174 24.8249 83.8708 24.8649 83.7441 24.9449C83.6174 25.0216 83.5174 25.1299 83.4441 25.2699C83.3708 25.4099 83.3341 25.5732 83.3341 25.7599C83.3341 25.9466 83.3708 26.1099 83.4441 26.2499C83.5174 26.3899 83.6174 26.4999 83.7441 26.5799C83.8708 26.6566 84.0174 26.6949 84.1841 26.6949Z" fill="#121515"/>
<path d="M87.1188 27.0599C86.9121 27.0599 86.7404 27.0249 86.6038 26.9549C86.4671 26.8849 86.3654 26.7916 86.2988 26.6749C86.2321 26.5582 86.1988 26.4316 86.1988 26.2949C86.1988 26.0416 86.2954 25.8466 86.4888 25.7099C86.6821 25.5732 86.9454 25.5049 87.2788 25.5049H87.9488V25.4749C87.9488 25.2582 87.8921 25.0949 87.7788 24.9849C87.6654 24.8716 87.5138 24.8149 87.3238 24.8149C87.1604 24.8149 87.0188 24.8566 86.8988 24.9399C86.7821 25.0199 86.7088 25.1382 86.6788 25.2949H86.2488C86.2654 25.1149 86.3254 24.9632 86.4288 24.8399C86.5354 24.7166 86.6671 24.6232 86.8238 24.5599C86.9804 24.4932 87.1471 24.4599 87.3238 24.4599C87.6704 24.4599 87.9304 24.5532 88.1038 24.7399C88.2804 24.9232 88.3688 25.1682 88.3688 25.4749V26.9999H87.9938L87.9688 26.5549C87.8988 26.6949 87.7954 26.8149 87.6588 26.9149C87.5254 27.0116 87.3454 27.0599 87.1188 27.0599ZM87.1838 26.7049C87.3438 26.7049 87.4804 26.6632 87.5938 26.5799C87.7104 26.4966 87.7988 26.3882 87.8588 26.2549C87.9188 26.1216 87.9488 25.9816 87.9488 25.8349V25.8299H87.3138C87.0671 25.8299 86.8921 25.8732 86.7887 25.9599C86.6888 26.0432 86.6388 26.1482 86.6388 26.2749C86.6388 26.4049 86.6854 26.5099 86.7788 26.5899C86.8754 26.6666 87.0104 26.7049 87.1838 26.7049Z" fill="#121515"/>
<path d="M89.2488 26.9999V24.5199H89.6288L89.6538 24.9649C89.7338 24.8082 89.8488 24.6849 89.9988 24.5949C90.1488 24.5049 90.3188 24.4599 90.5088 24.4599C90.8022 24.4599 91.0355 24.5499 91.2088 24.7299C91.3855 24.9066 91.4738 25.1799 91.4738 25.5499V26.9999H91.0538V25.5949C91.0538 25.0782 90.8405 24.8199 90.4138 24.8199C90.2005 24.8199 90.0222 24.8982 89.8788 25.0549C89.7388 25.2082 89.6688 25.4282 89.6688 25.7149V26.9999H89.2488Z" fill="#121515"/>
<path d="M92.5569 28.0999L93.1719 26.7599H93.0269L92.0419 24.5199H92.4969L93.3169 26.4499L94.1869 24.5199H94.6219L92.9969 28.0999H92.5569Z" fill="#121515"/>
</svg>
